<?xml version="1.0" encoding="UTF-8"?>
<svg xmlns="http://www.w3.org/2000/svg" xmlns:xlink="http://www.w3.org/1999/xlink" width="70pt" height="70pt" viewBox="0 0 70 70" version="1.1">
<g id="surface1">
<path style=" stroke:none;fill-rule:nonzero;fill:rgb(69.019608%,69.019608%,70.588235%);fill-opacity:1;" d="M 17.953125 36.902344 L 52.046875 36.902344 C 52.613281 36.902344 53.121094 36.550781 53.324219 36.023438 C 53.523438 35.496094 53.382812 34.894531 52.960938 34.515625 L 35.914062 19.191406 C 35.394531 18.722656 34.605469 18.722656 34.085938 19.191406 L 17.039062 34.515625 C 16.617188 34.894531 16.476562 35.496094 16.675781 36.023438 C 16.878906 36.550781 17.386719 36.902344 17.953125 36.902344 Z M 36.367188 34.167969 L 36.367188 23.277344 L 48.480469 34.167969 Z M 33.632812 23.277344 L 33.632812 34.167969 L 21.519531 34.167969 Z M 33.632812 23.277344 "/>
<path style=" stroke:none;fill-rule:nonzero;fill:rgb(69.019608%,69.019608%,70.588235%);fill-opacity:1;" d="M 63.03125 56.449219 C 62.640625 56.449219 62.253906 56.480469 61.875 56.546875 L 61.875 38.601562 C 62.699219 39.09375 63.648438 39.355469 64.621094 39.355469 C 66.144531 39.355469 67.597656 38.707031 68.617188 37.582031 C 69.578125 36.515625 70.066406 35.136719 69.992188 33.707031 C 69.917969 32.273438 69.289062 30.953125 68.21875 29.996094 L 62.300781 24.671875 L 62.300781 12 C 62.300781 11.246094 61.6875 10.632812 60.933594 10.632812 L 52.046875 10.632812 C 51.289062 10.632812 50.679688 11.246094 50.679688 12 L 50.679688 14.222656 L 38.597656 3.359375 C 36.546875 1.515625 33.453125 1.515625 31.40625 3.355469 L 20.425781 13.136719 C 19.863281 13.640625 19.8125 14.503906 20.316406 15.066406 C 20.820312 15.632812 21.683594 15.679688 22.246094 15.179688 L 33.230469 5.394531 C 34.238281 4.484375 35.761719 4.488281 36.769531 5.394531 L 66.390625 32.027344 C 66.917969 32.5 67.226562 33.144531 67.261719 33.847656 C 67.296875 34.550781 67.058594 35.226562 66.585938 35.75 C 66.085938 36.304688 65.371094 36.621094 64.621094 36.621094 C 63.96875 36.621094 63.339844 36.378906 62.851562 35.941406 L 35.914062 11.722656 C 35.394531 11.253906 34.605469 11.253906 34.085938 11.722656 L 7.148438 35.941406 C 6.0625 36.917969 4.390625 36.832031 3.414062 35.75 C 2.941406 35.226562 2.703125 34.550781 2.738281 33.847656 C 2.773438 33.144531 3.082031 32.5 3.613281 32.023438 L 13.070312 23.441406 C 13.628906 22.933594 13.671875 22.070312 13.164062 21.511719 C 12.65625 20.953125 11.792969 20.910156 11.234375 21.417969 L 1.78125 29.992188 C 0.710938 30.953125 0.0820312 32.273438 0.0078125 33.707031 C -0.0664062 35.136719 0.421875 36.515625 1.382812 37.582031 C 3.125 39.511719 5.964844 39.882812 8.125 38.601562 L 8.125 56.546875 C 7.746094 56.480469 7.359375 56.449219 6.96875 56.449219 C 3.128906 56.449219 0 59.574219 0 63.417969 C 0 64.871094 0.445312 66.265625 1.28125 67.449219 C 1.539062 67.808594 1.953125 68.023438 2.398438 68.023438 L 67.601562 68.023438 C 68.046875 68.023438 68.460938 67.808594 68.71875 67.449219 C 69.558594 66.265625 70 64.871094 70 63.417969 C 70 59.574219 66.875 56.449219 63.03125 56.449219 Z M 53.414062 13.367188 L 59.566406 13.367188 L 59.566406 22.210938 L 53.414062 16.679688 Z M 10.859375 36.285156 L 35 14.578125 L 59.140625 36.285156 L 59.140625 57.636719 C 58.589844 58.007812 58.085938 58.460938 57.65625 58.980469 C 57.382812 58.921875 57.101562 58.894531 56.820312 58.894531 C 56.039062 58.894531 55.292969 59.117188 54.664062 59.519531 C 53.773438 58.484375 52.457031 57.839844 51.03125 57.839844 C 49.421875 57.839844 47.929688 58.640625 47.039062 59.984375 C 46.890625 60.207031 46.8125 60.472656 46.8125 60.738281 L 46.8125 65.289062 L 43.03125 65.289062 L 43.03125 56.140625 C 43.03125 51.710938 39.429688 48.109375 35 48.109375 C 30.570312 48.109375 26.96875 51.710938 26.96875 56.140625 L 26.96875 65.289062 L 23.1875 65.289062 L 23.1875 60.738281 C 23.1875 60.472656 23.109375 60.207031 22.960938 59.984375 C 22.070312 58.640625 20.578125 57.839844 18.96875 57.839844 C 17.542969 57.839844 16.226562 58.484375 15.339844 59.519531 C 14.707031 59.117188 13.960938 58.894531 13.179688 58.894531 C 12.898438 58.894531 12.617188 58.921875 12.34375 58.980469 C 11.914062 58.460938 11.410156 58.007812 10.859375 57.636719 Z M 3.167969 65.289062 C 2.882812 64.710938 2.734375 64.074219 2.734375 63.417969 C 2.734375 61.082031 4.632812 59.183594 6.96875 59.183594 C 8.480469 59.183594 9.890625 59.996094 10.644531 61.308594 C 10.828125 61.625 11.128906 61.855469 11.480469 61.949219 C 11.832031 62.042969 12.207031 61.988281 12.523438 61.804688 C 12.722656 61.6875 12.941406 61.628906 13.179688 61.628906 C 13.699219 61.628906 14.167969 61.9375 14.375 62.417969 C 14.605469 62.96875 15.164062 63.304688 15.757812 63.25 C 16.351562 63.195312 16.839844 62.761719 16.96875 62.179688 C 17.171875 61.25 18.015625 60.574219 18.96875 60.574219 C 19.535156 60.574219 20.070312 60.804688 20.453125 61.207031 L 20.453125 65.289062 Z M 29.703125 65.289062 L 29.703125 56.140625 C 29.703125 53.21875 32.078125 50.84375 35 50.84375 C 37.921875 50.84375 40.296875 53.21875 40.296875 56.140625 L 40.296875 65.289062 Z M 66.832031 65.289062 L 49.546875 65.289062 L 49.546875 61.207031 C 49.929688 60.804688 50.464844 60.574219 51.03125 60.574219 C 51.984375 60.574219 52.828125 61.25 53.03125 62.179688 C 53.160156 62.761719 53.648438 63.195312 54.242188 63.25 C 54.835938 63.304688 55.394531 62.96875 55.625 62.417969 C 55.832031 61.9375 56.300781 61.628906 56.820312 61.628906 C 57.058594 61.628906 57.277344 61.6875 57.476562 61.804688 C 57.792969 61.988281 58.167969 62.042969 58.519531 61.949219 C 58.871094 61.855469 59.171875 61.625 59.355469 61.308594 C 60.109375 59.996094 61.519531 59.183594 63.03125 59.183594 C 65.367188 59.183594 67.265625 61.082031 67.265625 63.417969 C 67.265625 64.074219 67.117188 64.710938 66.832031 65.289062 Z M 66.832031 65.289062 "/>
<path style=" stroke:none;fill-rule:nonzero;fill:rgb(69.019608%,69.019608%,70.588235%);fill-opacity:1;" d="M 16.726562 19.675781 C 16.15625 19.675781 15.628906 19.308594 15.4375 18.769531 C 15.25 18.242188 15.410156 17.632812 15.84375 17.269531 C 16.289062 16.886719 16.949219 16.839844 17.449219 17.148438 C 17.925781 17.445312 18.175781 18.027344 18.066406 18.578125 C 17.9375 19.210938 17.371094 19.675781 16.726562 19.675781 Z M 16.726562 19.675781 "/>
<path style=" stroke:none;fill-rule:nonzero;fill:rgb(69.019608%,69.019608%,70.588235%);fill-opacity:1;" d="M 26.175781 51.183594 L 16.640625 51.183594 C 15.882812 51.183594 15.273438 50.574219 15.273438 49.816406 L 15.273438 41.648438 C 15.273438 40.894531 15.882812 40.28125 16.640625 40.28125 L 26.175781 40.28125 C 26.929688 40.28125 27.542969 40.894531 27.542969 41.648438 L 27.542969 49.816406 C 27.542969 50.574219 26.929688 51.183594 26.175781 51.183594 Z M 18.007812 48.449219 L 24.808594 48.449219 L 24.808594 43.015625 L 18.007812 43.015625 Z M 18.007812 48.449219 "/>
<path style=" stroke:none;fill-rule:nonzero;fill:rgb(69.019608%,69.019608%,70.588235%);fill-opacity:1;" d="M 53.359375 51.183594 L 43.824219 51.183594 C 43.070312 51.183594 42.457031 50.574219 42.457031 49.816406 L 42.457031 41.648438 C 42.457031 40.894531 43.070312 40.28125 43.824219 40.28125 L 53.359375 40.28125 C 54.117188 40.28125 54.726562 40.894531 54.726562 41.648438 L 54.726562 49.816406 C 54.726562 50.574219 54.117188 51.183594 53.359375 51.183594 Z M 45.191406 48.449219 L 51.992188 48.449219 L 51.992188 43.015625 L 45.191406 43.015625 Z M 45.191406 48.449219 "/>
</g>
</svg>
