<svg height="512" viewBox="0 0 64 64" width="512" xmlns="http://www.w3.org/2000/svg"><path d="m61 53v3a1 1 0 0 1 -1 1h-56a1 1 0 0 1 -1-1v-3z" fill="#bddbff"/><path d="m55 41 6 12h-21l-2-4h-12l-2 4h-21l6-12z" fill="#bddbff"/><circle cx="32" cy="24" fill="#bddbff" r="11"/><g fill="#3d9ae2"><path d="m61.9 52.553-5.9-11.789v-31.764a3 3 0 0 0 -3-3h-42a3 3 0 0 0 -3 3v31.764l-5.895 11.789a1 1 0 0 0 -.105.447v3a2 2 0 0 0 2 2h56a2 2 0 0 0 2-2v-3a1 1 0 0 0 -.1-.447zm-21.282-.553-1.718-3.447a1 1 0 0 0 -.9-.553h-12a1 1 0 0 0 -.895.553l-1.723 3.447h-18.764l5-10h44.764l5 10zm-2.236 0h-12.764l1-2h10.764zm-28.382-43a1 1 0 0 1 1-1h42a1 1 0 0 1 1 1v31h-44zm-6 47v-2h56v2z"/><path d="m10 48h2v2h-2z"/><path d="m14 48h2v2h-2z"/><path d="m48 48h2v2h-2z"/><path d="m52 48h2v2h-2z"/><path d="m15 44h2v2h-2z"/><path d="m11 44h2v2h-2z"/><path d="m19 44h2v2h-2z"/><path d="m23 44h2v2h-2z"/><path d="m27 44h2v2h-2z"/><path d="m31 44h2v2h-2z"/><path d="m35 44h2v2h-2z"/><path d="m39 44h2v2h-2z"/><path d="m43 44h2v2h-2z"/><path d="m47 44h2v2h-2z"/><path d="m51 44h2v2h-2z"/><path d="m18 48h4v2h-4z"/><path d="m42 48h4v2h-4z"/><path d="m32 12a12 12 0 1 0 12 12 12.013 12.013 0 0 0 -12-12zm0 22a10 10 0 1 1 10-10 10.011 10.011 0 0 1 -10 10z"/><path d="m32 21a3 3 0 0 1 2.25 1.016l1.5-1.323a5 5 0 1 0 0 6.614l-1.5-1.323a3 3 0 1 1 -2.25-4.984z"/></g></svg>