<svg height="512" viewBox="0 0 64 64" width="512" xmlns="http://www.w3.org/2000/svg"><g fill="#bddbff"><path d="m61 39v4a4.012 4.012 0 0 1 -4 4h-50a4.012 4.012 0 0 1 -4-4v-4z"/><path d="m40 47 1 10h-18l1-10z"/><path d="m43 57a2.006 2.006 0 0 1 2 2 2.015 2.015 0 0 1 -2 2h-22a2.006 2.006 0 0 1 -2-2 2.015 2.015 0 0 1 2-2z"/><path d="m48 19h3v4h-3z"/><path d="m47 23h-8.29a7 7 0 0 1 -13.42 0 7.042 7.042 0 0 1 0-4 7 7 0 0 1 13.42 0h8.29l-4.31-.54a11.065 11.065 0 0 0 -1.33-3.23l2.66-3.42-2.83-2.83-3.42 2.66a11.065 11.065 0 0 0 -3.23-1.33l-.54-4.31h-4l-.54 4.31a11.065 11.065 0 0 0 -3.23 1.33l-3.42-2.66-2.83 2.83 2.66 3.42a11.065 11.065 0 0 0 -1.33 3.23l-4.31.54v4l4.31.54a11.065 11.065 0 0 0 1.33 3.23l-2.66 3.42 2.83 2.83 3.42-2.66a11.065 11.065 0 0 0 3.23 1.33l.54 4.31h4l.54-4.31a11.065 11.065 0 0 0 3.23-1.33l3.42 2.66 2.83-2.83-2.66-3.42a11.065 11.065 0 0 0 1.33-3.23z"/></g><path d="m57 2h-50a5.006 5.006 0 0 0 -5 5v36a5.006 5.006 0 0 0 5 5h15.9l-.8 8h-1.1a3 3 0 0 0 0 6h22a3 3 0 0 0 0-6h-1.095l-.8-8h15.895a5.006 5.006 0 0 0 5-5v-36a5.006 5.006 0 0 0 -5-5zm-50 2h50a3 3 0 0 1 3 3v31h-56v-31a3 3 0 0 1 3-3zm37 55a1 1 0 0 1 -1 1h-22a1 1 0 0 1 0-2h22a1 1 0 0 1 1 1zm-4.1-3h-15.795l.8-8h14.195zm17.1-10h-50a3 3 0 0 1 -3-3v-3h56v3a3 3 0 0 1 -3 3z" fill="#3d9ae2"/><path d="m54 42h2v2h-2z" fill="#3d9ae2"/><path d="m6.684 21.948 6 2a1 1 0 0 0 .316.052h3.938l3.579.448a12.065 12.065 0 0 0 .923 2.236l-2.25 2.892a1 1 0 0 0 .083 1.321l2.83 2.83a1 1 0 0 0 1.321.082l2.892-2.249a12.141 12.141 0 0 0 2.235.923l.457 3.641a1 1 0 0 0 .992.876h4a1 1 0 0 0 .992-.876l.457-3.641a12.141 12.141 0 0 0 2.235-.923l2.892 2.249a1 1 0 0 0 1.321-.082l2.83-2.83a1 1 0 0 0 .083-1.321l-2.25-2.892a12.065 12.065 0 0 0 .923-2.236l3.579-.448h7.938a3.015 3.015 0 0 0 3-3 3 3 0 0 0 -3-3h-7.938l-3.579-.448a12.065 12.065 0 0 0 -.923-2.236l2.25-2.892a1 1 0 0 0 -.083-1.321l-2.827-2.83a1 1 0 0 0 -1.321-.082l-2.895 2.249a12.141 12.141 0 0 0 -2.235-.923l-.457-3.641a1 1 0 0 0 -.992-.876h-4a1 1 0 0 0 -.992.876l-.457 3.641a12.141 12.141 0 0 0 -2.235.923l-2.892-2.249a1 1 0 0 0 -1.321.082l-2.83 2.83a1 1 0 0 0 -.083 1.321l2.25 2.892a12.065 12.065 0 0 0 -.923 2.236l-3.579.448h-3.938a1 1 0 0 0 -.316.052l-6 2a1 1 0 0 0 0 1.9zm8.316-1.948h1v2h-1zm11.09 2a6.126 6.126 0 0 1 -.09-1 6.027 6.027 0 0 1 .09-1h20.91v2zm11.091 2a5.973 5.973 0 0 1 -10.361 0zm-10.362-6a5.974 5.974 0 0 1 10.362 0zm22.181 2h1v2h-1zm7 1a.978.978 0 0 1 -.306.713.965.965 0 0 1 -.694.287h-3v-2h3a1 1 0 0 1 1 1zm-38-1.117 3.435-.431a1 1 0 0 0 .849-.765 10.082 10.082 0 0 1 1.216-2.938 1 1 0 0 0 -.065-1.133l-2.118-2.723 1.581-1.581 2.723 2.117a1 1 0 0 0 1.132.066 10.141 10.141 0 0 1 2.939-1.212 1 1 0 0 0 .765-.849l.425-3.434h2.236l.43 3.434a1 1 0 0 0 .765.849 10.141 10.141 0 0 1 2.939 1.217 1 1 0 0 0 1.132-.066l2.723-2.117 1.581 1.581-2.118 2.718a1 1 0 0 0 -.065 1.133 10.237 10.237 0 0 1 1.021 2.251h-2.134a8 8 0 1 0 0 6h2.134a10.237 10.237 0 0 1 -1.021 2.251 1 1 0 0 0 .065 1.133l2.118 2.723-1.581 1.581-2.723-2.117a1 1 0 0 0 -1.132-.066 10.141 10.141 0 0 1 -2.939 1.212 1 1 0 0 0 -.765.849l-.43 3.434h-2.236l-.43-3.434a1 1 0 0 0 -.765-.849 10.141 10.141 0 0 1 -2.939-1.212 1 1 0 0 0 -1.132.066l-2.723 2.117-1.581-1.581 2.118-2.723a1 1 0 0 0 .065-1.133 10.082 10.082 0 0 1 -1.211-2.938 1 1 0 0 0 -.849-.765l-3.435-.431zm-5 .171v1.892l-2.838-.946z" fill="#3d9ae2"/></svg>