<svg width="512" height="512" xmlns="http://www.w3.org/2000/svg">

 <g>
  <title>background</title>
  <rect fill="none" id="canvas_background" height="602" width="802" y="-1" x="-1"/>
 </g>
 <g>
  <title>Layer 1</title>
  <g id="svg_1">
   <path fill="#3c9ce4" id="svg_2" d="m102.214,472.011c-5.4,0 -10.854,-1.168 -16.034,-3.551c-13.681,-6.292 -22.18,-19.556 -22.18,-34.615l0,-41.856l-18,0c-25.364,0 -46,-20.635 -46,-46l0,-260c0,-25.364 20.636,-46 46,-46l420,0c25.364,0 46,20.636 46,46l0,260c0,25.365 -20.636,46 -46,46l-267.427,0l-70.841,70.017c-0.27,0.266 -0.548,0.522 -0.835,0.768c-7.105,6.09 -15.82,9.236 -24.683,9.237zm-56.214,-400.022c-7.72,0 -14,6.28 -14,14l0,260c0,7.72 6.28,14 14,14l34,0c8.836,0 16,7.164 16,16l0,57.856c0,3.401 2.225,4.933 3.552,5.543c1.272,0.585 3.725,1.245 6.201,-0.651l75,-74.127c2.995,-2.96 7.036,-4.62 11.247,-4.62l274,0c7.72,0 14,-6.28 14,-14l0,-260c0,-7.72 -6.28,-14 -14,-14l-420,0l0,-0.001z"/>
   <path fill="#3c9ce4" id="svg_3" d="m320.274,327.989c-2.571,0 -5.15,-0.619 -7.508,-1.872l-56.766,-30.172l-56.766,30.173c-5.385,2.862 -11.928,2.415 -16.873,-1.154s-7.431,-9.638 -6.411,-15.65l10.881,-64.141l-46.062,-45.394c-4.323,-4.261 -5.863,-10.601 -3.976,-16.37s6.876,-9.974 12.881,-10.856l63.512,-9.331l28.435,-58.251c2.683,-5.496 8.263,-8.981 14.378,-8.981s11.696,3.486 14.378,8.981l28.435,58.251l63.512,9.331c6.005,0.882 10.995,5.087 12.881,10.856c1.887,5.769 0.347,12.109 -3.976,16.37l-46.062,45.394l10.881,64.141c1.02,6.012 -1.466,12.081 -6.411,15.65c-2.778,2.005 -6.063,3.025 -9.363,3.025zm-64.274,-66.164c2.581,0 5.162,0.624 7.51,1.872l35.55,18.896l-6.834,-40.288c-0.874,-5.151 0.822,-10.405 4.543,-14.072l29.113,-28.69l-40.07,-5.887c-5.226,-0.768 -9.736,-4.065 -12.053,-8.812l-17.759,-36.381l-17.759,36.381c-2.317,4.747 -6.827,8.044 -12.053,8.812l-40.07,5.887l29.113,28.69c3.721,3.667 5.417,8.921 4.543,14.072l-6.834,40.288l35.55,-18.896c2.348,-1.248 4.929,-1.872 7.51,-1.872z"/>
  </g>
 </g>
</svg>