<?xml version="1.0"?>
<svg xmlns="http://www.w3.org/2000/svg" xmlns:xlink="http://www.w3.org/1999/xlink" xmlns:svgjs="http://svgjs.com/svgjs" version="1.1" width="512" height="512" x="0" y="0" viewBox="0 0 512 512" style="enable-background:new 0 0 512 512" xml:space="preserve" class=""><g><g xmlns="http://www.w3.org/2000/svg"><path d="M476,48H36A28.031,28.031,0,0,0,8,76V356a28.031,28.031,0,0,0,28,28H308.69L410.34,485.66A8,8,0,0,0,424,480V384h52a28.031,28.031,0,0,0,28-28V76A28.031,28.031,0,0,0,476,48Zm12,308a12.01,12.01,0,0,1-12,12H416a8,8,0,0,0-8,8v84.69l-90.34-90.35A8.008,8.008,0,0,0,312,368H36a12.01,12.01,0,0,1-12-12V76A12.01,12.01,0,0,1,36,64H476a12.01,12.01,0,0,1,12,12Z" fill="#3a9be3" data-original="#000000" style="" class=""/><path d="M479.03,198.52a7.989,7.989,0,0,0-7.02-5.51l-43.96-3.22-16.64-40.81a8,8,0,0,0-14.82,0l-16.64,40.81-43.96,3.22a7.986,7.986,0,0,0-5.99,3.43,7.986,7.986,0,0,0-5.99-3.43l-43.96-3.22-16.64-40.81a8,8,0,0,0-14.82,0l-16.64,40.81-43.96,3.22a7.986,7.986,0,0,0-5.99,3.43,7.986,7.986,0,0,0-5.99-3.43l-43.96-3.22-16.64-40.81a8,8,0,0,0-14.82,0L83.95,189.79l-43.96,3.22a8,8,0,0,0-4.58,14.09l33.67,28.44-10.52,42.8a8.005,8.005,0,0,0,11.99,8.71L108,263.82l37.45,23.23a8.041,8.041,0,0,0,4.22,1.2,8.007,8.007,0,0,0,7.77-9.91l-10.52-42.8,33.67-28.44a8.407,8.407,0,0,0,1.41-1.58,8.407,8.407,0,0,0,1.41,1.58l33.67,28.44-10.52,42.8a8.005,8.005,0,0,0,11.99,8.71L256,263.82l37.45,23.23a8.041,8.041,0,0,0,4.22,1.2,8.007,8.007,0,0,0,7.77-9.91l-10.52-42.8,33.67-28.44a8.407,8.407,0,0,0,1.41-1.58,8.407,8.407,0,0,0,1.41,1.58l33.67,28.44-10.52,42.8a8.005,8.005,0,0,0,11.99,8.71L404,263.82l37.45,23.23a8.041,8.041,0,0,0,4.22,1.2,8.007,8.007,0,0,0,7.77-9.91l-10.52-42.8,33.67-28.44A7.992,7.992,0,0,0,479.03,198.52Zm-346.23,28a7.99,7.99,0,0,0-2.6,8.02l7.02,28.57-25-15.51a8.02,8.02,0,0,0-8.44,0l-25,15.51,7.02-28.57a7.99,7.99,0,0,0-2.6-8.02L60.72,207.53l29.34-2.15a7.991,7.991,0,0,0,6.83-4.96L108,173.18l11.11,27.24a7.991,7.991,0,0,0,6.83,4.96l29.34,2.15Zm148,0a7.99,7.99,0,0,0-2.6,8.02l7.02,28.57-25-15.51a8.02,8.02,0,0,0-8.44,0l-25,15.51,7.02-28.57a7.99,7.99,0,0,0-2.6-8.02l-22.48-18.99,29.34-2.15a7.991,7.991,0,0,0,6.83-4.96L256,173.18l11.11,27.24a7.991,7.991,0,0,0,6.83,4.96l29.34,2.15Zm148,0a7.99,7.99,0,0,0-2.6,8.02l7.02,28.57-25-15.51a8.02,8.02,0,0,0-8.44,0l-25,15.51,7.02-28.57a7.99,7.99,0,0,0-2.6-8.02l-22.48-18.99,29.34-2.15a7.991,7.991,0,0,0,6.83-4.96L404,173.18l11.11,27.24a7.991,7.991,0,0,0,6.83,4.96l29.34,2.15Z" fill="#3a9be3" data-original="#000000" style="" class=""/></g></g></svg>
