<?xml version="1.0"?>
<svg xmlns="http://www.w3.org/2000/svg" xmlns:xlink="http://www.w3.org/1999/xlink" xmlns:svgjs="http://svgjs.com/svgjs" version="1.1" width="512" height="512" x="0" y="0" viewBox="0 0 64 64" style="enable-background:new 0 0 512 512" xml:space="preserve"><g><g xmlns="http://www.w3.org/2000/svg"><path d="m47 47h8v2h-8z" fill="#3d9ae2" data-original="#000000" style=""/><path d="m43 47h2v2h-2z" fill="#3d9ae2" data-original="#000000" style=""/><path d="m63 25h-4v-18c0-3.309-2.691-6-6-6s-6 2.691-6 6v6h-37c-2.757 0-5 2.243-5 5v3.221c-2.47 2.525-4 5.975-4 9.779s1.53 7.254 4 9.779v7.221c0 2.757 2.243 5 5 5v5c0 2.757 2.243 5 5 5h35v-1c0-2.757-2.243-5-5-5h-2.279l-1.333-4h12.612c2.757 0 5-2.243 5-5v-7h4zm-10 16v2h-30.826c4.081-2.449 6.826-6.904 6.826-12s-2.745-9.551-6.826-12h24.826v6h-8v16zm-33 16v-4h2.612l-1.333 4zm29-30v-16h8v16zm7.382 2-2.829 5.658c-.211.422-.895.422-1.105 0l-2.83-5.658zm-3.382-26c2.206 0 4 1.794 4 4v2h-8v-2c0-2.206 1.794-4 4-4zm-43 12h37v2h-32c-2.974 0-5.73.939-8 2.527v-1.527c0-1.654 1.346-3 3-3zm5 4c6.617 0 12 5.383 12 12s-5.383 12-12 12-12-5.383-12-12 5.383-12 12-12zm-8 29v-5.527c.924.647 1.932 1.178 3 1.588v6.939c-1.654 0-3-1.346-3-3zm5 10v-13.332c.968.212 1.97.332 3 .332s2.032-.12 3-.332v13.332c0 1.654-1.346 3-3 3s-3-1.346-3-3zm35.829 3h-28.855c.442-.584.773-1.257.924-2h25.102c1.304 0 2.416.836 2.829 2zm-7.217-4h-17.224l1.333-4h14.558zm16.388-9c0 1.654-1.346 3-3 3h-34v-6h33c1.103 0 2-.897 2-2v-2h2zm4-9h-20v-12h6v1.236l3.658 7.316c.446.893 1.344 1.448 2.342 1.448s1.896-.555 2.342-1.447l3.658-7.317v-1.236h2z" fill="#3d9ae2" data-original="#000000" style=""/><path d="m52 21h2v2h-2z" fill="#3d9ae2" data-original="#000000" style=""/><path d="m52 13h2v2h-2z" fill="#3d9ae2" data-original="#000000" style=""/><path d="m52 17h2v2h-2z" fill="#3d9ae2" data-original="#000000" style=""/><path d="m15 41c5.514 0 10-4.486 10-10s-4.486-10-10-10-10 4.486-10 10 4.486 10 10 10zm0-18c4.411 0 8 3.589 8 8s-3.589 8-8 8-8-3.589-8-8 3.589-8 8-8z" fill="#3d9ae2" data-original="#000000" style=""/><path d="m15 27v-2c-3.309 0-6 2.691-6 6h2c0-2.206 1.794-4 4-4z" fill="#3d9ae2" data-original="#000000" style=""/><path d="m31 21h6v2h-6z" fill="#3d9ae2" data-original="#000000" style=""/><path d="m31 25h6v2h-6z" fill="#3d9ae2" data-original="#000000" style=""/><path d="m31 29h6v2h-6z" fill="#3d9ae2" data-original="#000000" style=""/><path d="m31 33h6v2h-6z" fill="#3d9ae2" data-original="#000000" style=""/><path d="m31 37h6v2h-6z" fill="#3d9ae2" data-original="#000000" style=""/></g></g></svg>
