<svg height="512" viewBox="0 0 64 64" width="512" xmlns="http://www.w3.org/2000/svg"><path d="m59.49 9.18c-.11-.05-.23-.11-.34-.15a11.937 11.937 0 0 0 -9.99.03 11.717 11.717 0 0 0 -3.16 2.13c-.17.15-.33.31-.49.48a10.711 10.711 0 0 0 -1.09 1.33 8.607 8.607 0 0 0 -.62.95l-1 1.73-2.5 4.33.98 1.48 2.72 4.12 2 .12 4.7.28 2.5-4.33.8-1.38 1.7-2.95 2.5-4.33 2-3.46c-.23-.13-.47-.26-.71-.38z" fill="#bddbff"/><path d="m36 49 1 8h-16l1-8z" fill="#bddbff"/><path d="m54 41v4a4 4 0 0 1 -4 4h-42a4 4 0 0 1 -4-4v-4z" fill="#bddbff"/><path d="m39 57a2.015 2.015 0 0 1 2 2 2.006 2.006 0 0 1 -2 2h-20a2.015 2.015 0 0 1 -2-2 2.006 2.006 0 0 1 2-2z" fill="#bddbff"/><path d="m42 3v8l-2-4-2 4v-8z" fill="#bddbff"/><g fill="#3d9ae2"><path d="m47 44h2v2h-2z"/><path d="m15 12h16v2h-16z"/><path d="m15 8h4v2h-4z"/><path d="m21 8h8v2h-8z"/><path d="m15 18h10v2h-10z"/><path d="m27 18h10v2h-10z"/><path d="m15 22h16v2h-16z"/><path d="m33 22h6v2h-6z"/><path d="m15 26h24v2h-24z"/><path d="m15 30h10v2h-10z"/><path d="m27 30h6v2h-6z"/><path d="m35 30h2v2h-2z"/><path d="m15 34h8v2h-8z"/><path d="m25 34h10v2h-10z"/><path d="m60.7 8.688c-.316-.182-.624-.336-.929-.477a12.939 12.939 0 0 0 -12.771.918v-4.129a3 3 0 0 0 -3-3h-30a3 3 0 0 0 -3 3v7h-3a5.006 5.006 0 0 0 -5 5v28a5.006 5.006 0 0 0 5 5h12.867l-.75 6h-1.117a3 3 0 0 0 0 6h20a3 3 0 0 0 0-6h-1.117l-.75-6h12.867a5.006 5.006 0 0 0 5-5v-24.444l6.062-10.5a1 1 0 0 0 -.362-1.368zm-13.9 3.112a10.835 10.835 0 0 1 2.014-1.442l1.508 2.289c-.459.754-.916 1.556-1.387 2.387zm-1.387 1.53 2.409 3.649-1.382 2.393-2.464-3.732.691-1.2a10.9 10.9 0 0 1 .749-1.106zm-2.555 4.247 2.464 3.732-1.382 2.394-2.464-3.732zm2.814 7.126 1.382-2.395 4.465.269-1.379 2.398zm6.964-4.062-4.464-.269 1.382-2.394 4.464.269zm-1.974-4.6c.477-.841.937-1.647 1.392-2.394l4.464.268-1.382 2.4zm2.693-4.319a5.464 5.464 0 0 1 2.678-2.122 4.146 4.146 0 0 1 2.767.375l-1.162 2.012zm-2.005-2.4a11.119 11.119 0 0 1 1.83-.327 11.379 11.379 0 0 0 -1.651 1.849l-.859-1.3c.23-.08.448-.16.68-.222zm-12.35-5.322h2v2.764l-.1-.211a1.042 1.042 0 0 0 -1.79 0l-.1.211zm-25 0h23v7a1 1 0 0 0 1.9.447l1.1-2.211 1.1 2.211a1 1 0 0 0 .9.553 1.051 1.051 0 0 0 .229-.026 1 1 0 0 0 .771-.974v-7h1a1 1 0 0 1 1 1v5.771a13.078 13.078 0 0 0 -2.063 2.676l-3.5 6.063a1 1 0 0 0 .032 1.051l3.356 5.082-5.691 9.857 1.732 1 5.691-9.857.443.026v13.331h-32v-35a1 1 0 0 1 1-1zm-6 10h3v26h-6v-23a3 3 0 0 1 3-3zm32 45a1 1 0 0 1 -1 1h-20a1 1 0 0 1 0-2h20a1 1 0 0 1 1 1zm-4.133-3h-13.734l.75-6h12.234zm14.133-8h-42a3 3 0 0 1 -3-3v-3h48v3a3 3 0 0 1 -3 3zm3-8h-6v-13.211l3.637.219h.059a1 1 0 0 0 .866-.5l1.438-2.488z"/></g></svg>